# xmcd CD database file
#
# Track frame offsets:
#	150
#	8897
#	21259
#	34443
#	41563
#	52171
#	62678
#	69836
#	86347
#	101576
#	108064
#	129758
#	173107
#	200632
#	214202
#
# Disc length: 3279 seconds
#
# Revision: 2
# Processed by: cddbd v1.5.2PL0 Copyright (c) Steve Scherf et al.
# Submitted via: CDex 1.51
#
DISCID=c90ccd0f
DTITLE=Mozart - Ouvertures célèbres - Symphonie N°25
DYEAR=1900
DGENRE=Classique
TTITLE0=Bastien et Bastienne  [Mario Bernardi, Calgary Philharmonic Orchestra]
TTITLE1=La finta Semplice - Molto allegro
TTITLE2=La finta Semplice - Andante
TTITLE3=La finta Semplice - Molto allegro
TTITLE4=Mitridate, re di Ponto (Mithridate) - Allegro
TTITLE5=Mitridate, re di Ponto (Mithridate) - Andante grazioso
TTITLE6=Mitridate, re di Ponto (Mithridate) - Presto
TTITLE7=Lucio Silla - Molto allegro
TTITLE8=Lucio Silla - Andante
TTITLE9=Lucio Silla - Molto allegro
TTITLE10=Idomeneo, re di Creta (Idoménée)
TTITLE11=Symphonie N°25 en sol mineur KV.183 - I. Allegro con brio  [Alberto Lizzio, Mozart Festival Orchestra]
TTITLE12=Symphonie N°25 en sol mineur KV.183 - II. Andante
TTITLE13=Symphonie N°25 en sol mineur KV.183 - III. Minuetto
TTITLE14=Symphonie N°25 en sol mineur KV.183 - IV. Allegro
EXTD=
EXTT0=
EXTT1=
EXTT2=
EXTT3=
EXTT4=
EXTT5=
EXTT6=
EXTT7=
EXTT8=
EXTT9=
EXTT10=
EXTT11=
EXTT12=
EXTT13=
EXTT14=
PLAYORDER=
